<?xml version="1.0" encoding="UTF-8" standalone="no"?>
<svg
   viewBox="0 0 200 60"
   width="400"
   height="120"
   version="1.1"
   id="svg14"
   sodipodi:docname="logo-term.svg"
   xmlns:inkscape="http://www.inkscape.org/namespaces/inkscape"
   xmlns:sodipodi="http://sodipodi.sourceforge.net/DTD/sodipodi-0.dtd"
   xmlns="http://www.w3.org/2000/svg"
   xmlns:svg="http://www.w3.org/2000/svg">
  <defs
     id="defs18" />
  <sodipodi:namedview
     id="namedview16"
     pagecolor="#ffffff"
     bordercolor="#000000"
     borderopacity="0.25"
     inkscape:showpageshadow="2"
     inkscape:pageopacity="0.0"
     inkscape:pagecheckerboard="0"
     inkscape:deskcolor="#d1d1d1" />
  <circle
     cx="12"
     cy="34"
     r="4"
     fill="#A855F7"
     opacity="0.8"
     id="circle2">
    <animate
       attributeName="opacity"
       values="0.8;0.6;0.8"
       dur="3s"
       repeatCount="indefinite" />
  </circle>
  <circle
     cx="20"
     cy="28"
     r="5"
     fill="#A855F7"
     opacity="0.6"
     id="circle4">
    <animate
       attributeName="opacity"
       values="0.6;0.8;0.6"
       dur="2.5s"
       repeatCount="indefinite" />
  </circle>
  <circle
     cx="16"
     cy="40"
     r="3"
     fill="#A855F7"
     opacity="0.7"
     id="circle6">
    <animate
       attributeName="opacity"
       values="0.7;0.5;0.7"
       dur="2.8s"
       repeatCount="indefinite" />
  </circle>
  <circle
     cx="24"
     cy="38"
     r="2.5"
     fill="#A855F7"
     opacity="0.5"
     id="circle8">
    <animate
       attributeName="opacity"
       values="0.5;0.7;0.5"
       dur="3.2s"
       repeatCount="indefinite" />
  </circle>
  <circle
     cx="10"
     cy="24"
     r="2"
     fill="#A855F7"
     opacity="0.4"
     id="circle10">
    <animate
       attributeName="opacity"
       values="0.4;0.6;0.4"
       dur="2.6s"
       repeatCount="indefinite" />
  </circle>
  <g
     aria-label="protest"
     id="text12"
     style="font-weight:600;font-size:16px;font-family:'JetBrains Mono';fill:#f8fafc">
    <path
       d="m 33.168,29.2 h 1.936 v 1.52 h 0.144 q 0.16,-0.784 0.768,-1.232 0.624,-0.448 1.584,-0.448 0.688,0 1.248,0.24 0.56,0.24 0.944,0.688 0.4,0.448 0.608,1.088 0.224,0.624 0.224,1.424 v 2.192 q 0,0.8 -0.224,1.456 -0.208,0.64 -0.608,1.104 -0.384,0.448 -0.944,0.688 -0.56,0.24 -1.248,0.24 -0.96,0 -1.584,-0.448 -0.608,-0.448 -0.768,-1.248 h -0.144 q 0,0.048 0.016,0.208 0.016,0.144 0.016,0.368 0.016,0.224 0.032,0.48 0.016,0.24 0.016,0.48 v 2.72 h -2.016 z m 2.016,3.328 v 2.144 q 0,0.784 0.448,1.264 0.464,0.48 1.248,0.48 0.816,0 1.28,-0.48 0.464,-0.496 0.464,-1.312 v -2.096 q 0,-0.816 -0.464,-1.28 -0.464,-0.48 -1.28,-0.48 -0.768,0 -1.232,0.48 -0.464,0.48 -0.464,1.28 z"
       id="path20" />
    <path
       d="m 45.008006,29.2 v 1.52 h 0.144 q 0.16,-0.8 0.8,-1.232 0.64,-0.448 1.632,-0.448 1.424,0 2.224,0.88 0.8,0.88 0.8,2.432 v 0.64 h -2.096 v -0.464 q 0,-0.848 -0.464,-1.312 -0.464,-0.48 -1.28,-0.48 -0.768,0 -1.216,0.48 -0.432,0.48 -0.432,1.312 V 38 h -2 v -8.8 z"
       id="path22" />
    <path
       d="m 56.000012,38.16 q -0.864,0 -1.584,-0.256 -0.704,-0.256 -1.2,-0.704 -0.496,-0.464 -0.768,-1.104 -0.272,-0.64 -0.272,-1.424 v -2.16 q 0,-0.784 0.272,-1.424 0.272,-0.64 0.768,-1.088 0.496,-0.464 1.2,-0.704 0.72,-0.256 1.584,-0.256 0.864,0 1.568,0.256 0.72,0.24 1.216,0.704 0.496,0.448 0.768,1.088 0.272,0.64 0.272,1.424 v 2.16 q 0,0.784 -0.272,1.44 -0.272,0.64 -0.768,1.104 -0.496,0.448 -1.2,0.704 -0.704,0.24 -1.584,0.24 z m -1.824,-3.488 q 0,0.8 0.48,1.264 0.496,0.464 1.344,0.464 0.848,0 1.328,-0.464 0.496,-0.464 0.496,-1.264 v -2.16 q 0,-0.8 -0.496,-1.264 -0.48,-0.464 -1.328,-0.464 -0.848,0 -1.344,0.464 -0.48,0.464 -0.48,1.264 z"
       id="path24" />
    <path
       d="m 61.520018,29.2 h 2.432 v -2.72 h 2 v 2.72 h 3.344 v 1.808 h -3.344 v 4.272 q 0,0.416 0.24,0.672 0.256,0.24 0.704,0.24 h 2.24 V 38 h -2.384 q -1.296,0 -2.048,-0.736 -0.752,-0.736 -0.752,-1.984 v -4.272 h -2.432 z"
       id="path26" />
    <path
       d="m 71.376024,32.48 q 0,-0.784 0.272,-1.424 0.272,-0.64 0.768,-1.088 0.496,-0.448 1.2,-0.688 0.704,-0.24 1.584,-0.24 0.864,0 1.552,0.256 0.704,0.24 1.2,0.688 0.496,0.448 0.768,1.088 0.272,0.64 0.272,1.424 v 1.6 h -5.632 v 0.576 q 0,0.896 0.48,1.392 0.496,0.496 1.36,0.496 0.64,0 1.104,-0.208 0.464,-0.208 0.656,-0.576 h 1.968 q -0.144,0.544 -0.48,0.992 -0.336,0.432 -0.832,0.752 -0.48,0.304 -1.104,0.48 -0.608,0.16 -1.312,0.16 -0.864,0 -1.584,-0.24 -0.704,-0.24 -1.2,-0.688 -0.496,-0.464 -0.768,-1.104 -0.272,-0.64 -0.272,-1.424 z m 1.984,0.272 h 3.68 v -0.256 q 0,-0.88 -0.496,-1.36 -0.48,-0.496 -1.344,-0.496 -0.864,0 -1.36,0.496 -0.48,0.48 -0.48,1.344 z"
       id="path28" />
    <path
       d="m 80.928031,35.744 h 2.048 q 0.096,0.416 0.496,0.656 0.4,0.224 0.992,0.224 h 0.64 q 0.752,0 1.152,-0.288 0.416,-0.304 0.416,-0.816 0,-0.88 -1.36,-1.072 l -1.248,-0.144 q -1.504,-0.192 -2.224,-0.832 -0.72,-0.64 -0.72,-1.84 0,-1.248 0.864,-1.92 0.88,-0.672 2.512,-0.672 h 0.656 q 1.456,0 2.336,0.624 0.896,0.608 1.056,1.712 h -2.048 q -0.08,-0.368 -0.448,-0.576 -0.352,-0.224 -0.896,-0.224 h -0.656 q -1.408,0 -1.408,0.992 0,0.848 1.184,0.992 l 1.296,0.176 q 1.568,0.192 2.32,0.864 0.752,0.656 0.752,1.856 0,1.296 -0.912,2 -0.912,0.704 -2.624,0.704 h -0.64 q -1.552,0 -2.48,-0.624 -0.912,-0.64 -1.056,-1.792 z"
       id="path30" />
    <path
       d="m 90.320037,29.2 h 2.432 v -2.72 h 2 v 2.72 h 3.344 v 1.808 h -3.344 v 4.272 q 0,0.416 0.24,0.672 0.256,0.24 0.704,0.24 h 2.24 V 38 h -2.384 q -1.296,0 -2.048,-0.736 -0.752,-0.736 -0.752,-1.984 v -4.272 h -2.432 z"
       id="path32" />
  </g>
</svg>
